<?xml version="1.0" standalone="no"?>
<!DOCTYPE svg PUBLIC "-//W3C//DTD SVG 20010904//EN"
 "http://www.w3.org/TR/2001/REC-SVG-20010904/DTD/svg10.dtd">
<svg version="1.0" xmlns="http://www.w3.org/2000/svg"
 width="260.000000pt" height="260.000000pt" viewBox="0 0 260.000000 260.000000"
 preserveAspectRatio="xMidYMid meet">
<metadata>
Created by potrace 1.14, written by Peter Selinger 2001-2017
</metadata>
<g transform="translate(0.000000,260.000000) scale(0.100000,-0.100000)"
fill="#000000" stroke="none">
<path d="M447 2123 c-4 -3 -7 -14 -7 -24 0 -12 12 -19 47 -24 66 -10 92 -25
152 -91 l52 -56 -3 -632 -3 -632 -25 -48 c-30 -59 -71 -83 -156 -94 -51 -6
-59 -10 -62 -30 l-3 -22 295 0 296 0 0 25 c0 23 -4 25 -45 25 -79 0 -147 39
-183 105 -15 27 -17 92 -19 605 -3 548 -2 574 15 555 9 -12 257 -317 551 -678
479 -590 536 -657 562 -657 l28 0 3 748 c3 743 3 747 25 787 25 48 59 69 136
85 51 10 58 14 55 33 -3 22 -5 22 -275 25 l-273 2 0 -25 c0 -21 5 -25 29 -25
53 0 131 -32 160 -66 46 -52 52 -120 49 -539 l-3 -370 -406 510 -405 510 -290
3 c-160 1 -293 -1 -297 -5z"/>
</g>
</svg>
